<svg xmlns="http://www.w3.org/2000/svg" width="1480" height="1080" viewBox="0 0 1480 1080" font-family="-apple-system, 'Segoe UI', Roboto, sans-serif">
  <defs>
    <linearGradient id="backdrop" x1="0" y1="0" x2="0.4" y2="1">
      <stop offset="0" stop-color="#12152B"/>
      <stop offset="0.5" stop-color="#1E2350"/>
      <stop offset="1" stop-color="#2B1E4D"/>
    </linearGradient>
    <linearGradient id="accent" x1="0" y1="0" x2="1" y2="1">
      <stop offset="0" stop-color="#6C7BFF"/>
      <stop offset="1" stop-color="#9B6CFF"/>
    </linearGradient>
    <linearGradient id="success" x1="0" y1="0" x2="1" y2="1">
      <stop offset="0" stop-color="#35D29A"/>
      <stop offset="1" stop-color="#4FC3F7"/>
    </linearGradient>
    <filter id="blur" x="-50%" y="-50%" width="200%" height="200%">
      <feGaussianBlur stdDeviation="55"/>
    </filter>
    <filter id="cardshadow" x="-30%" y="-30%" width="160%" height="160%">
      <feDropShadow dx="0" dy="10" stdDeviation="16" flood-color="#000000" flood-opacity="0.35"/>
    </filter>
    <clipPath id="phoneClip"><rect x="0" y="0" width="440" height="912" rx="44"/></clipPath>
  </defs>

  <rect width="1480" height="1080" fill="#0C0E1C"/>
  <text x="740" y="50" fill="#F5F6FF" font-size="30" font-weight="700" text-anchor="middle">Nexus Grocery POS — Liquid Glass UI</text>
  <text x="740" y="80" fill="#B7BBDD" font-size="16" text-anchor="middle">Dashboard · Point of Sale · Products  (faithful to the app's real GlassPalette tokens)</text>

  <!-- ================= PHONE 1: DASHBOARD ================= -->
  <g transform="translate(40,110)">
    <rect x="-6" y="-6" width="452" height="924" rx="50" fill="#04050C"/>
    <g clip-path="url(#phoneClip)">
      <rect width="440" height="912" fill="url(#backdrop)"/>
      <!-- colourful blurred blobs behind the glass -->
      <circle cx="80" cy="120" r="120" fill="#6C7BFF" opacity="0.55" filter="url(#blur)"/>
      <circle cx="400" cy="80" r="110" fill="#9B6CFF" opacity="0.5" filter="url(#blur)"/>
      <circle cx="380" cy="760" r="130" fill="#35D29A" opacity="0.28" filter="url(#blur)"/>

      <!-- status bar -->
      <text x="28" y="44" fill="#F5F6FF" font-size="15" font-weight="600">9:41</text>
      <text x="412" y="44" fill="#F5F6FF" font-size="13" text-anchor="end">●●● ◓ ▮</text>

      <!-- header -->
      <text x="28" y="96" fill="#B7BBDD" font-size="15">Good evening,</text>
      <text x="28" y="126" fill="#F5F6FF" font-size="26" font-weight="700">Nexus Market</text>
      <circle cx="406" cy="104" r="22" fill="#FFFFFF" opacity="0.12"/>
      <text x="406" y="111" fill="#F5F6FF" font-size="16" font-weight="700" text-anchor="middle">NM</text>

      <!-- stat cards 2x2 -->
      <g filter="url(#cardshadow)">
        <rect x="24" y="150" width="190" height="110" rx="22" fill="#FFFFFF" opacity="0.10"/>
      </g>
      <rect x="24" y="150" width="190" height="110" rx="22" fill="none" stroke="#FFFFFF" stroke-opacity="0.16"/>
      <circle cx="52" cy="180" r="14" fill="url(#accent)"/>
      <text x="44" y="225" fill="#F5F6FF" font-size="24" font-weight="700">$0.00</text>
      <text x="44" y="247" fill="#B7BBDD" font-size="13">Today's sales</text>

      <g filter="url(#cardshadow)">
        <rect x="226" y="150" width="190" height="110" rx="22" fill="#FFFFFF" opacity="0.10"/>
      </g>
      <rect x="226" y="150" width="190" height="110" rx="22" fill="none" stroke="#FFFFFF" stroke-opacity="0.16"/>
      <circle cx="254" cy="180" r="14" fill="url(#success)"/>
      <text x="246" y="225" fill="#F5F6FF" font-size="24" font-weight="700">0</text>
      <text x="246" y="247" fill="#B7BBDD" font-size="13">Transactions</text>

      <g filter="url(#cardshadow)">
        <rect x="24" y="272" width="190" height="110" rx="22" fill="#FFFFFF" opacity="0.10"/>
      </g>
      <rect x="24" y="272" width="190" height="110" rx="22" fill="none" stroke="#FFFFFF" stroke-opacity="0.16"/>
      <circle cx="52" cy="302" r="14" fill="#FFB454"/>
      <text x="44" y="347" fill="#F5F6FF" font-size="24" font-weight="700">0</text>
      <text x="44" y="369" fill="#B7BBDD" font-size="13">Items sold</text>

      <g filter="url(#cardshadow)">
        <rect x="226" y="272" width="190" height="110" rx="22" fill="#FFFFFF" opacity="0.10"/>
      </g>
      <rect x="226" y="272" width="190" height="110" rx="22" fill="none" stroke="#FFFFFF" stroke-opacity="0.16"/>
      <circle cx="254" cy="302" r="14" fill="#FF6B81"/>
      <text x="246" y="347" fill="#F5F6FF" font-size="24" font-weight="700">0</text>
      <text x="246" y="369" fill="#B7BBDD" font-size="13">Low stock</text>

      <!-- quick actions -->
      <text x="28" y="424" fill="#F5F6FF" font-size="18" font-weight="700">Quick actions</text>
      <g filter="url(#cardshadow)"><rect x="24" y="440" width="392" height="74" rx="20" fill="#FFFFFF" opacity="0.10"/></g>
      <rect x="24" y="440" width="392" height="74" rx="20" fill="none" stroke="#FFFFFF" stroke-opacity="0.16"/>
      <rect x="44" y="462" width="40" height="30" rx="10" fill="url(#accent)"/>
      <text x="104" y="475" fill="#F5F6FF" font-size="16" font-weight="600">New sale</text>
      <text x="104" y="498" fill="#B7BBDD" font-size="13">Open the register</text>
      <text x="396" y="485" fill="#B7BBDD" font-size="20" text-anchor="end">›</text>

      <g filter="url(#cardshadow)"><rect x="24" y="524" width="392" height="74" rx="20" fill="#FFFFFF" opacity="0.10"/></g>
      <rect x="24" y="524" width="392" height="74" rx="20" fill="none" stroke="#FFFFFF" stroke-opacity="0.16"/>
      <rect x="44" y="546" width="40" height="30" rx="10" fill="url(#success)"/>
      <text x="104" y="559" fill="#F5F6FF" font-size="16" font-weight="600">Add product</text>
      <text x="104" y="582" fill="#B7BBDD" font-size="13">Grow your catalog</text>
      <text x="396" y="569" fill="#B7BBDD" font-size="20" text-anchor="end">›</text>

      <!-- recent activity empty -->
      <text x="28" y="646" fill="#F5F6FF" font-size="18" font-weight="700">Recent activity</text>
      <g filter="url(#cardshadow)"><rect x="24" y="662" width="392" height="118" rx="20" fill="#FFFFFF" opacity="0.07"/></g>
      <rect x="24" y="662" width="392" height="118" rx="20" fill="none" stroke="#FFFFFF" stroke-opacity="0.12"/>
      <circle cx="220" cy="706" r="18" fill="#FFFFFF" opacity="0.10"/>
      <text x="220" y="744" fill="#B7BBDD" font-size="14" text-anchor="middle">No sales recorded yet</text>

      <!-- bottom nav -->
      <g filter="url(#cardshadow)"><rect x="44" y="828" width="352" height="62" rx="31" fill="#FFFFFF" opacity="0.14"/></g>
      <rect x="44" y="828" width="352" height="62" rx="31" fill="none" stroke="#FFFFFF" stroke-opacity="0.18"/>
      <rect x="62" y="846" width="58" height="26" rx="13" fill="url(#accent)"/>
      <text x="91" y="864" fill="#FFFFFF" font-size="12" font-weight="700" text-anchor="middle">Home</text>
      <text x="170" y="864" fill="#B7BBDD" font-size="12" text-anchor="middle">Products</text>
      <text x="245" y="864" fill="#B7BBDD" font-size="12" text-anchor="middle">POS</text>
      <text x="312" y="864" fill="#B7BBDD" font-size="12" text-anchor="middle">Stock</text>
      <text x="372" y="864" fill="#B7BBDD" font-size="12" text-anchor="middle">More</text>
    </g>
    <text x="220" y="950" fill="#F5F6FF" font-size="17" font-weight="600" text-anchor="middle">Dashboard</text>
  </g>

  <!-- ================= PHONE 2: POS ================= -->
  <g transform="translate(520,110)">
    <rect x="-6" y="-6" width="452" height="924" rx="50" fill="#04050C"/>
    <g clip-path="url(#phoneClip)">
      <rect width="440" height="912" fill="url(#backdrop)"/>
      <circle cx="60" cy="90" r="120" fill="#9B6CFF" opacity="0.5" filter="url(#blur)"/>
      <circle cx="410" cy="300" r="120" fill="#6C7BFF" opacity="0.45" filter="url(#blur)"/>
      <circle cx="80" cy="800" r="120" fill="#35D29A" opacity="0.25" filter="url(#blur)"/>

      <text x="28" y="44" fill="#F5F6FF" font-size="15" font-weight="600">9:41</text>
      <text x="412" y="44" fill="#F5F6FF" font-size="13" text-anchor="end">●●● ◓ ▮</text>

      <text x="28" y="96" fill="#F5F6FF" font-size="26" font-weight="700">Point of sale</text>
      <text x="28" y="120" fill="#B7BBDD" font-size="14">2 items in cart</text>

      <!-- search with scan -->
      <g filter="url(#cardshadow)"><rect x="24" y="138" width="392" height="56" rx="18" fill="#FFFFFF" opacity="0.10"/></g>
      <rect x="24" y="138" width="392" height="56" rx="18" fill="none" stroke="#FFFFFF" stroke-opacity="0.16"/>
      <circle cx="52" cy="166" r="7" fill="none" stroke="#B7BBDD" stroke-width="2.5"/>
      <text x="74" y="171" fill="#B7BBDD" font-size="15">Name, SKU or barcode</text>
      <rect x="370" y="150" width="34" height="32" rx="10" fill="url(#accent)"/>
      <rect x="378" y="159" width="18" height="14" rx="3" fill="none" stroke="#FFFFFF" stroke-width="2"/>

      <text x="28" y="232" fill="#F5F6FF" font-size="18" font-weight="700">Cart</text>

      <!-- cart line 1 -->
      <g filter="url(#cardshadow)"><rect x="24" y="246" width="392" height="118" rx="20" fill="#FFFFFF" opacity="0.10"/></g>
      <rect x="24" y="246" width="392" height="118" rx="20" fill="none" stroke="#FFFFFF" stroke-opacity="0.16"/>
      <text x="42" y="278" fill="#F5F6FF" font-size="16" font-weight="600">Whole Milk 1L</text>
      <text x="42" y="299" fill="#B7BBDD" font-size="13">$1.80 each</text>
      <!-- qty stepper -->
      <circle cx="54" cy="328" r="15" fill="#FFFFFF" opacity="0.12"/><text x="54" y="333" fill="#F5F6FF" font-size="18" text-anchor="middle">−</text>
      <rect x="76" y="314" width="56" height="28" rx="9" fill="#FFFFFF" opacity="0.08"/><text x="104" y="333" fill="#F5F6FF" font-size="15" text-anchor="middle">2</text>
      <circle cx="154" cy="328" r="15" fill="#FFFFFF" opacity="0.12"/><text x="154" y="333" fill="#F5F6FF" font-size="18" text-anchor="middle">+</text>
      <rect x="186" y="316" width="30" height="24" rx="8" fill="url(#accent)"/><text x="201" y="333" fill="#FFFFFF" font-size="13" text-anchor="middle">%</text>
      <rect x="222" y="316" width="30" height="24" rx="8" fill="#FFFFFF" opacity="0.10"/><text x="237" y="333" fill="#B7BBDD" font-size="13" text-anchor="middle">$</text>
      <text x="398" y="299" fill="#FF6B81" font-size="18" text-anchor="end">✕</text>
      <text x="398" y="340" fill="#F5F6FF" font-size="18" font-weight="700" text-anchor="end">$3.60</text>

      <!-- cart line 2 -->
      <g filter="url(#cardshadow)"><rect x="24" y="376" width="392" height="118" rx="20" fill="#FFFFFF" opacity="0.10"/></g>
      <rect x="24" y="376" width="392" height="118" rx="20" fill="none" stroke="#FFFFFF" stroke-opacity="0.16"/>
      <text x="42" y="408" fill="#F5F6FF" font-size="16" font-weight="600">Sourdough Loaf</text>
      <text x="42" y="429" fill="#B7BBDD" font-size="13">$3.20 each</text>
      <circle cx="54" cy="458" r="15" fill="#FFFFFF" opacity="0.12"/><text x="54" y="463" fill="#F5F6FF" font-size="18" text-anchor="middle">−</text>
      <rect x="76" y="444" width="56" height="28" rx="9" fill="#FFFFFF" opacity="0.08"/><text x="104" y="463" fill="#F5F6FF" font-size="15" text-anchor="middle">1</text>
      <circle cx="154" cy="458" r="15" fill="#FFFFFF" opacity="0.12"/><text x="154" y="463" fill="#F5F6FF" font-size="18" text-anchor="middle">+</text>
      <rect x="186" y="446" width="30" height="24" rx="8" fill="#FFFFFF" opacity="0.10"/><text x="201" y="463" fill="#B7BBDD" font-size="13" text-anchor="middle">%</text>
      <rect x="222" y="446" width="30" height="24" rx="8" fill="#FFFFFF" opacity="0.10"/><text x="237" y="463" fill="#B7BBDD" font-size="13" text-anchor="middle">$</text>
      <text x="398" y="429" fill="#FF6B81" font-size="18" text-anchor="end">✕</text>
      <text x="398" y="470" fill="#F5F6FF" font-size="18" font-weight="700" text-anchor="end">$3.20</text>

      <text x="28" y="540" fill="#F5F6FF" font-size="16" font-weight="700">Customer</text>
      <g filter="url(#cardshadow)"><rect x="24" y="552" width="392" height="52" rx="16" fill="#FFFFFF" opacity="0.08"/></g>
      <rect x="24" y="552" width="392" height="52" rx="16" fill="none" stroke="#FFFFFF" stroke-opacity="0.12"/>
      <circle cx="48" cy="578" r="9" fill="none" stroke="#B7BBDD" stroke-width="2"/>
      <text x="70" y="583" fill="#B7BBDD" font-size="14">Search customer (optional)</text>

      <!-- bottom summary bar -->
      <g filter="url(#cardshadow)"><rect x="20" y="690" width="400" height="200" rx="28" fill="#FFFFFF" opacity="0.14"/></g>
      <rect x="20" y="690" width="400" height="200" rx="28" fill="none" stroke="#FFFFFF" stroke-opacity="0.2"/>
      <text x="44" y="726" fill="#B7BBDD" font-size="14">Subtotal</text><text x="396" y="726" fill="#B7BBDD" font-size="14" text-anchor="end">$6.80</text>
      <text x="44" y="752" fill="#FFB454" font-size="14">Discount</text><text x="396" y="752" fill="#FFB454" font-size="14" text-anchor="end">−$0.36</text>
      <text x="44" y="778" fill="#B7BBDD" font-size="14">Tax</text><text x="396" y="778" fill="#B7BBDD" font-size="14" text-anchor="end">$0.32</text>
      <text x="44" y="808" fill="#F5F6FF" font-size="18" font-weight="700">Total</text><text x="396" y="808" fill="#F5F6FF" font-size="18" font-weight="700" text-anchor="end">$6.76</text>
      <g filter="url(#cardshadow)"><rect x="44" y="826" width="352" height="48" rx="16" fill="url(#accent)"/></g>
      <text x="220" y="856" fill="#FFFFFF" font-size="17" font-weight="700" text-anchor="middle">Charge $6.76</text>
    </g>
    <text x="220" y="950" fill="#F5F6FF" font-size="17" font-weight="600" text-anchor="middle">Point of Sale</text>
  </g>

  <!-- ================= PHONE 3: PRODUCTS ================= -->
  <g transform="translate(1000,110)">
    <rect x="-6" y="-6" width="452" height="924" rx="50" fill="#04050C"/>
    <g clip-path="url(#phoneClip)">
      <rect width="440" height="912" fill="url(#backdrop)"/>
      <circle cx="400" cy="100" r="120" fill="#6C7BFF" opacity="0.5" filter="url(#blur)"/>
      <circle cx="60" cy="420" r="120" fill="#9B6CFF" opacity="0.4" filter="url(#blur)"/>
      <circle cx="380" cy="820" r="120" fill="#4FC3F7" opacity="0.25" filter="url(#blur)"/>

      <text x="28" y="44" fill="#F5F6FF" font-size="15" font-weight="600">9:41</text>
      <text x="412" y="44" fill="#F5F6FF" font-size="13" text-anchor="end">●●● ◓ ▮</text>

      <text x="28" y="96" fill="#F5F6FF" font-size="26" font-weight="700">Products</text>
      <text x="28" y="120" fill="#B7BBDD" font-size="14">Tap a product to edit</text>
      <g filter="url(#cardshadow)"><circle cx="396" cy="98" r="24" fill="url(#accent)"/></g>
      <text x="396" y="106" fill="#FFFFFF" font-size="26" font-weight="600" text-anchor="middle">+</text>

      <!-- search -->
      <g filter="url(#cardshadow)"><rect x="24" y="138" width="392" height="56" rx="18" fill="#FFFFFF" opacity="0.10"/></g>
      <rect x="24" y="138" width="392" height="56" rx="18" fill="none" stroke="#FFFFFF" stroke-opacity="0.16"/>
      <circle cx="52" cy="166" r="7" fill="none" stroke="#B7BBDD" stroke-width="2.5"/>
      <text x="74" y="171" fill="#B7BBDD" font-size="15">Search products</text>

      <!-- category chips -->
      <rect x="24" y="214" width="64" height="34" rx="17" fill="url(#accent)"/><text x="56" y="236" fill="#FFFFFF" font-size="13" font-weight="600" text-anchor="middle">All</text>
      <rect x="98" y="214" width="84" height="34" rx="17" fill="#FFFFFF" opacity="0.10"/><text x="140" y="236" fill="#B7BBDD" font-size="13" text-anchor="middle">Dairy</text>
      <rect x="192" y="214" width="84" height="34" rx="17" fill="#FFFFFF" opacity="0.10"/><text x="234" y="236" fill="#B7BBDD" font-size="13" text-anchor="middle">Bakery</text>
      <rect x="286" y="214" width="96" height="34" rx="17" fill="#FFFFFF" opacity="0.10"/><text x="334" y="236" fill="#B7BBDD" font-size="13" text-anchor="middle">Produce</text>

      <!-- product rows -->
      <g filter="url(#cardshadow)"><rect x="24" y="268" width="392" height="86" rx="20" fill="#FFFFFF" opacity="0.10"/></g>
      <rect x="24" y="268" width="392" height="86" rx="20" fill="none" stroke="#FFFFFF" stroke-opacity="0.16"/>
      <rect x="40" y="284" width="54" height="54" rx="14" fill="#FFFFFF" opacity="0.10"/>
      <text x="110" y="304" fill="#F5F6FF" font-size="16" font-weight="600">Whole Milk 1L</text>
      <text x="110" y="326" fill="#B7BBDD" font-size="13">SKU MLK-001 · 24 in stock</text>
      <text x="398" y="304" fill="#F5F6FF" font-size="17" font-weight="700" text-anchor="end">$1.80</text>
      <rect x="346" y="318" width="52" height="22" rx="11" fill="#35D29A" opacity="0.22"/><text x="372" y="333" fill="#35D29A" font-size="11" font-weight="600" text-anchor="middle">In stock</text>

      <g filter="url(#cardshadow)"><rect x="24" y="366" width="392" height="86" rx="20" fill="#FFFFFF" opacity="0.10"/></g>
      <rect x="24" y="366" width="392" height="86" rx="20" fill="none" stroke="#FFFFFF" stroke-opacity="0.16"/>
      <rect x="40" y="382" width="54" height="54" rx="14" fill="#FFFFFF" opacity="0.10"/>
      <text x="110" y="402" fill="#F5F6FF" font-size="16" font-weight="600">Sourdough Loaf</text>
      <text x="110" y="424" fill="#B7BBDD" font-size="13">SKU BRD-014 · 3 in stock</text>
      <text x="398" y="402" fill="#F5F6FF" font-size="17" font-weight="700" text-anchor="end">$3.20</text>
      <rect x="338" y="416" width="60" height="22" rx="11" fill="#FFB454" opacity="0.22"/><text x="368" y="431" fill="#FFB454" font-size="11" font-weight="600" text-anchor="middle">Low stock</text>

      <g filter="url(#cardshadow)"><rect x="24" y="464" width="392" height="86" rx="20" fill="#FFFFFF" opacity="0.10"/></g>
      <rect x="24" y="464" width="392" height="86" rx="20" fill="none" stroke="#FFFFFF" stroke-opacity="0.16"/>
      <rect x="40" y="480" width="54" height="54" rx="14" fill="#FFFFFF" opacity="0.10"/>
      <text x="110" y="500" fill="#F5F6FF" font-size="16" font-weight="600">Roma Tomatoes</text>
      <text x="110" y="522" fill="#B7BBDD" font-size="13">SKU VEG-202 · 12.5 kg</text>
      <text x="398" y="500" fill="#F5F6FF" font-size="17" font-weight="700" text-anchor="end">$2.40</text>
      <rect x="346" y="514" width="52" height="22" rx="11" fill="#35D29A" opacity="0.22"/><text x="372" y="529" fill="#35D29A" font-size="11" font-weight="600" text-anchor="middle">In stock</text>

      <g filter="url(#cardshadow)"><rect x="24" y="562" width="392" height="86" rx="20" fill="#FFFFFF" opacity="0.10"/></g>
      <rect x="24" y="562" width="392" height="86" rx="20" fill="none" stroke="#FFFFFF" stroke-opacity="0.16"/>
      <rect x="40" y="578" width="54" height="54" rx="14" fill="#FFFFFF" opacity="0.10"/>
      <text x="110" y="598" fill="#F5F6FF" font-size="16" font-weight="600">Free-range Eggs</text>
      <text x="110" y="620" fill="#B7BBDD" font-size="13">SKU EGG-006 · 0 in stock</text>
      <text x="398" y="598" fill="#F5F6FF" font-size="17" font-weight="700" text-anchor="end">$4.10</text>
      <rect x="338" y="612" width="60" height="22" rx="11" fill="#FF6B81" opacity="0.22"/><text x="368" y="627" fill="#FF6B81" font-size="11" font-weight="600" text-anchor="middle">Sold out</text>

      <!-- bottom nav -->
      <g filter="url(#cardshadow)"><rect x="44" y="828" width="352" height="62" rx="31" fill="#FFFFFF" opacity="0.14"/></g>
      <rect x="44" y="828" width="352" height="62" rx="31" fill="none" stroke="#FFFFFF" stroke-opacity="0.18"/>
      <text x="91" y="864" fill="#B7BBDD" font-size="12" text-anchor="middle">Home</text>
      <rect x="142" y="846" width="74" height="26" rx="13" fill="url(#accent)"/>
      <text x="179" y="864" fill="#FFFFFF" font-size="12" font-weight="700" text-anchor="middle">Products</text>
      <text x="245" y="864" fill="#B7BBDD" font-size="12" text-anchor="middle">POS</text>
      <text x="312" y="864" fill="#B7BBDD" font-size="12" text-anchor="middle">Stock</text>
      <text x="372" y="864" fill="#B7BBDD" font-size="12" text-anchor="middle">More</text>
    </g>
    <text x="220" y="950" fill="#F5F6FF" font-size="17" font-weight="600" text-anchor="middle">Products</text>
  </g>

  <text x="740" y="1050" fill="#5C5F7A" font-size="13" text-anchor="middle">Mockup rendered from the app's actual design tokens · no seed data — empty/real states shown</text>
</svg>
